<svg width="28" height="28" viewBox="0 0 28 28" fill="none" xmlns="http://www.w3.org/2000/svg">
<path fill-rule="evenodd" clip-rule="evenodd" d="M14 0C16.7689 0 19.4757 0.821086 21.778 2.35943C24.0803 3.89777 25.8747 6.08427 26.9343 8.64243C27.9939 11.2006 28.2712 14.0155 27.731 16.7313C27.1908 19.447 25.8574 21.9416 23.8995 23.8995C21.9416 25.8574 19.447 27.1908 16.7313 27.731C14.0155 28.2712 11.2006 27.9939 8.64243 26.9343C6.08427 25.8747 3.89777 24.0803 2.35943 21.778C0.821086 19.4757 0 16.7689 0 14C0 10.287 1.475 6.72601 4.1005 4.1005C6.72601 1.475 10.287 0 14 0V0ZM21.58 8.76C21.3815 8.2243 21.0666 7.73931 20.658 7.34C20.2614 6.93098 19.7778 6.61653 19.243 6.42C18.6226 6.18287 17.9651 6.05759 17.301 6.05C16.448 6.01 16.176 6 14.001 6C11.826 6 11.552 6 10.701 6.05C10.0371 6.05695 9.37986 6.18224 8.76 6.42C8.22482 6.61628 7.74081 6.93075 7.344 7.34C6.93539 7.73909 6.62078 8.22416 6.423 8.76C6.18873 9.38053 6.06322 10.0368 6.052 10.7C6.015 11.55 6.003 11.82 6.003 14C6.003 16.18 6.009 16.45 6.052 17.3C6.06429 17.9631 6.18976 18.6192 6.423 19.24C6.62319 19.7746 6.93748 20.2592 7.344 20.66C7.74615 21.0627 8.22863 21.3762 8.76 21.58C9.38138 21.8124 10.0377 21.9375 10.701 21.95C11.554 21.99 11.827 22 14.001 22C16.175 22 16.449 21.99 17.301 21.95C17.9647 21.9381 18.6214 21.813 19.243 21.58C19.7739 21.3759 20.256 21.0624 20.658 20.66C21.0645 20.259 21.3791 19.7745 21.58 19.24C21.8124 18.619 21.9375 17.963 21.95 17.3C21.988 16.45 22 16.17 22 14C22 11.83 21.994 11.55 21.95 10.7C21.9396 10.0368 21.8144 9.38046 21.58 8.76ZM20.51 17.23C20.5051 17.7358 20.411 18.2369 20.232 18.71C20.105 19.0614 19.8999 19.3794 19.632 19.64C19.3706 19.9025 19.0568 20.107 18.711 20.24C18.236 20.4163 17.7337 20.5077 17.227 20.51C16.38 20.55 16.133 20.56 13.994 20.56C11.855 20.56 11.601 20.56 10.76 20.51C10.2533 20.5084 9.75084 20.4169 9.276 20.24C8.93097 20.1055 8.61743 19.9013 8.355 19.64C8.0891 19.3778 7.88424 19.0603 7.755 18.71C7.57712 18.2365 7.48304 17.7357 7.477 17.23C7.44 16.38 7.428 16.13 7.428 14C7.428 11.87 7.434 11.61 7.477 10.76C7.48423 10.2544 7.57826 9.75377 7.755 9.28C7.88898 8.93486 8.09344 8.62143 8.35532 8.35972C8.61721 8.09801 8.93077 7.89376 9.276 7.76C9.75143 7.58398 10.2531 7.48932 10.76 7.48C11.607 7.44 11.86 7.43 13.994 7.43C16.128 7.43 16.386 7.44 17.227 7.48C17.734 7.48849 18.2358 7.58318 18.711 7.76C19.0598 7.88696 19.3749 8.09222 19.632 8.36C19.8977 8.6184 20.1027 8.93265 20.232 9.28C20.4087 9.75377 20.5028 10.2544 20.51 10.76C20.547 11.61 20.559 11.86 20.559 14C20.559 16.14 20.547 16.39 20.51 17.23ZM13.994 9.89C13.1812 9.8902 12.3866 10.1314 11.7109 10.5831C11.0351 11.0349 10.5085 11.6768 10.1976 12.4279C9.88665 13.1789 9.8054 14.0052 9.96409 14.8024C10.1228 15.5996 10.5143 16.3319 11.0891 16.9066C11.664 17.4813 12.3963 17.8726 13.1935 18.0311C13.9908 18.1896 14.8171 18.1082 15.5681 17.797C16.319 17.4859 16.9608 16.9592 17.4124 16.2833C17.864 15.6074 18.105 14.8128 18.105 14C18.1045 12.9099 17.6711 11.8647 16.9003 11.094C16.1294 10.3233 15.0841 9.89027 13.994 9.89ZM13.994 16.67C13.4659 16.67 12.9497 16.5134 12.5106 16.22C12.0715 15.9266 11.7293 15.5096 11.5272 15.0218C11.3252 14.5339 11.2723 13.997 11.3753 13.4791C11.4783 12.9612 11.7326 12.4854 12.106 12.112C12.4794 11.7386 12.9552 11.4843 13.4731 11.3813C13.991 11.2783 14.5279 11.3312 15.0158 11.5332C15.5036 11.7353 15.9206 12.0775 16.214 12.5166C16.5074 12.9557 16.664 13.4719 16.664 14C16.6627 14.7077 16.381 15.3861 15.8805 15.8865C15.3801 16.387 14.7017 16.6687 13.994 16.67ZM18.266 8.77C18.4545 8.77079 18.6385 8.82735 18.795 8.93254C18.9514 9.03774 19.0731 9.18687 19.145 9.36115C19.2168 9.53543 19.2354 9.72707 19.1985 9.91192C19.1616 10.0968 19.0708 10.2666 18.9376 10.3999C18.8044 10.5333 18.6347 10.6242 18.4499 10.6613C18.2651 10.6984 18.0734 10.68 17.8991 10.6083C17.7247 10.5367 17.5755 10.4151 17.4701 10.2588C17.3647 10.1025 17.308 9.91849 17.307 9.73C17.3069 9.60398 17.3316 9.47917 17.3797 9.3627C17.4278 9.24623 17.4985 9.1404 17.5875 9.05124C17.6766 8.96208 17.7824 8.89135 17.8988 8.84309C18.0152 8.79484 18.14 8.77 18.266 8.77Z" fill="black" fill-opacity="0.4"/>
</svg>
