<svg width="48" height="48" viewBox="0 0 48 48" fill="none" xmlns="http://www.w3.org/2000/svg">
<path d="M46.4 40.8001V7.20001C47.36 6.40005 48 5.28003 48 3.99998C48 1.76004 46.24 0 44 0C42.7199 0 41.5199 0.640024 40.7999 1.60001H7.19995C6.39999 0.640024 5.27997 0 3.99992 0C1.75998 0 -6.10352e-05 1.76004 -6.10352e-05 3.99998C-6.10352e-05 5.28003 0.639963 6.48002 1.59995 7.20001V40.8001C0.639963 41.6 -6.10352e-05 42.7201 -6.10352e-05 44C-6.10352e-05 46.2401 1.75998 48 3.99992 48C5.27997 48 6.47996 47.36 7.19995 46.4H40.8C41.6 47.36 42.72 48 44.0001 48C46.2401 48 48 46.24 48 44C48 42.7201 47.36 41.5201 46.4 40.8001ZM44 46.4001C43.1199 46.4001 42.32 45.9201 41.92 45.2001C41.7599 44.9601 41.5199 44.8001 41.2 44.8001H6.71995C6.47996 44.8001 6.23996 44.9601 6.07993 45.2001C5.59994 45.9201 4.87994 46.4001 3.99992 46.4001C2.63991 46.4001 1.59995 45.3601 1.59995 44.0001C1.59995 43.2002 2.07995 42.4001 2.79994 42.0001C3.03993 41.84 3.19996 41.6 3.19996 41.2801V6.79998C3.19996 6.48002 3.03993 6.24002 2.79994 6.07999C2.07995 5.67996 1.59995 4.88001 1.59995 3.99998C1.59995 2.63997 2.63991 1.60001 3.99992 1.60001C4.87994 1.60001 5.59994 2.08001 5.99996 2.8C6.15999 3.04 6.39999 3.20003 6.71995 3.20003H41.2C41.5199 3.20003 41.7599 3.04 41.92 2.8C42.3999 2.08001 43.1199 1.60001 44 1.60001C45.36 1.60001 46.3999 2.63997 46.3999 3.99998C46.3999 4.88001 45.9199 5.67996 45.1999 6.07999C44.9599 6.24002 44.7999 6.48002 44.7999 6.79998V41.2C44.7999 41.52 44.9599 41.76 45.1999 41.92C45.9199 42.4 46.3999 43.12 46.3999 44C46.4 45.36 45.36 46.4001 44 46.4001Z" fill="#00BF78"/>
<path d="M42.4 4.80005H5.59995C5.11995 4.80005 4.79999 5.12001 4.79999 5.60001V42.4C4.79999 42.88 5.11995 43.2 5.59995 43.2H42.4C42.8799 43.2 43.1999 42.88 43.1999 42.4V5.60001C43.2 5.12001 42.8799 4.80005 42.4 4.80005ZM41.6 41.6001H6.4V6.40006H41.6V41.6001Z" fill="#00BF78"/>
<path d="M9.59992 13.6C9.83992 13.6 9.99995 13.52 10.1599 13.36L13.3599 10.1599C13.6799 9.83998 13.6799 9.35999 13.3599 9.03993C13.0399 8.71997 12.56 8.71997 12.2399 9.03993L9.03996 12.2401C8.72 12.56 8.72 13.04 9.03996 13.3601C9.19999 13.52 9.35993 13.6 9.59992 13.6Z" fill="#00BF78"/>
<path d="M9.59993 17.6001C9.83992 17.6001 9.99995 17.5201 10.1599 17.3601L11.7599 15.7601C12.0799 15.4401 12.0799 14.9601 11.7599 14.64C11.4399 14.32 10.9599 14.3201 10.6399 14.64L9.03987 16.24C8.71991 16.56 8.71991 17.04 9.03987 17.3601C9.19999 17.52 9.35993 17.6001 9.59993 17.6001Z" fill="#00BF78"/>
<path d="M13.84 12.56C14 12.72 14.16 12.8 14.4 12.8C14.64 12.8 14.8 12.72 14.9599 12.56L17.3599 10.16C17.6799 9.84008 17.6799 9.36009 17.3599 9.04003C17.0399 8.71997 16.5599 8.72006 16.2399 9.04003L13.8399 11.44C13.5199 11.7601 13.5199 12.2401 13.84 12.56Z" fill="#00BF78"/>
<path d="M9.59993 21.6C9.83992 21.6 9.99995 21.5201 10.1599 21.36L17.3599 14.16C17.6799 13.8401 17.6799 13.3601 17.3599 13.04C17.0399 12.7201 16.5599 12.7201 16.2399 13.04L9.03987 20.24C8.71991 20.56 8.71991 21.04 9.03987 21.36C9.19999 21.5201 9.35993 21.6 9.59993 21.6Z" fill="#00BF78"/>
<path d="M20 11.2C20.2399 11.2 20.4 11.12 20.5599 10.96L21.3599 10.16C21.6798 9.84008 21.6798 9.36009 21.3599 9.04003C21.0399 8.71997 20.5599 8.72006 20.2399 9.04003L19.4399 9.83999C19.1199 10.16 19.1199 10.6399 19.4399 10.96C19.5999 11.12 19.76 11.2 20 11.2Z" fill="#00BF78"/>
<path d="M12 13.6C12 14.08 12.32 14.3999 12.8 14.3999C13.28 14.3999 13.5999 14.08 13.5999 13.6C13.5999 13.2 13.28 12.8 12.8 12.8C12.32 12.8 12 13.12 12 13.6Z" fill="#00BF78"/>
<path d="M18.3999 12.8C18.8799 12.8 19.1999 12.4801 19.1999 12.0001C19.1999 11.6 18.8799 11.2001 18.3999 11.2001C17.9199 11.2001 17.6 11.5201 17.6 12.0001C17.6 12.4801 17.9199 12.8 18.3999 12.8Z" fill="#00BF78"/>
</svg>
