<svg width="48" height="48" viewBox="0 0 48 48" fill="none" xmlns="http://www.w3.org/2000/svg">
<g clip-path="url(#clip0_8_1002)">
<path d="M46.8563 46.4657L33.3905 32.4616C36.8251 29.017 38.953 24.2682 38.953 19.0311C38.953 8.5368 30.4162 0 19.9219 0C9.42764 0 0.890839 8.5368 0.890839 19.0311C0.890839 29.5254 9.42764 38.0622 19.9219 38.0622C24.5283 38.0622 28.756 36.4155 32.0511 33.6832L45.5495 47.7218C45.7271 47.9076 45.9646 48 46.2029 48C46.4295 48 46.6551 47.9157 46.831 47.7472C47.1916 47.4001 47.2025 46.8264 46.8563 46.4657ZM19.9219 36.2497C10.4272 36.2497 2.70332 28.5258 2.70332 19.0311C2.70332 9.53638 10.4272 1.81248 19.9219 1.81248C29.4166 1.81248 37.1405 9.53638 37.1405 19.0311C37.1405 28.5258 29.4157 36.2497 19.9219 36.2497Z" fill="white"/>
</g>
<defs>
<clipPath id="clip0_8_1002">
<rect width="48" height="48" fill="white"/>
</clipPath>
</defs>
</svg>
