<svg width="28" height="28" viewBox="0 0 28 28" fill="none" xmlns="http://www.w3.org/2000/svg">
<path fill-rule="evenodd" clip-rule="evenodd" d="M14 0C16.7689 0 19.4757 0.821086 21.778 2.35943C24.0803 3.89777 25.8747 6.08427 26.9343 8.64243C27.9939 11.2006 28.2712 14.0155 27.731 16.7313C27.1908 19.447 25.8574 21.9416 23.8995 23.8995C21.9416 25.8574 19.447 27.1908 16.7313 27.731C14.0155 28.2712 11.2006 27.9939 8.64243 26.9343C6.08427 25.8747 3.89777 24.0803 2.35943 21.778C0.821086 19.4757 0 16.7689 0 14C0 10.287 1.475 6.72601 4.1005 4.1005C6.72601 1.475 10.287 0 14 0V0ZM19.186 15.14C19.355 14.83 19.953 13.93 20.403 13.25C21.754 11.27 22.003 10.85 22.003 10.6C22.0022 10.5071 21.9648 10.4182 21.8989 10.3527C21.833 10.2872 21.7439 10.2503 21.651 10.25H18.486C18.4035 10.2498 18.3236 10.2788 18.2604 10.3318C18.1973 10.3849 18.1549 10.4587 18.141 10.54C17.4609 12.0079 16.5057 13.3318 15.327 14.44C15.1751 14.3161 15.0614 14.1518 14.9991 13.9659C14.9368 13.7801 14.9284 13.5804 14.975 13.39V10.45C14.9944 10.3359 14.9895 10.219 14.9606 10.107C14.9316 9.99499 14.8793 9.89036 14.807 9.8C14.567 9.55 14.207 9.55 13.207 9.55C11.392 9.55 10.745 10.09 10.745 10.6C10.7378 10.6854 10.7647 10.7701 10.8198 10.8357C10.8749 10.9013 10.9537 10.9424 11.039 10.95H11.061C11.061 10.95 11.448 11.2 11.448 12.7C11.4676 13.2815 11.4371 13.8637 11.357 14.44C10.463 14.28 9.225 12.07 8.634 10.47C8.60614 10.401 8.5572 10.3426 8.49416 10.3031C8.43113 10.2636 8.35722 10.245 8.283 10.25H5.469C5.37673 10.2486 5.28759 10.2835 5.22067 10.347C5.15376 10.4106 5.11439 10.4978 5.111 10.59C5.11056 10.6135 5.11257 10.6369 5.117 10.66C5.511 12.77 9.978 19.33 12.855 19.33H14.262C15.008 19.33 15.062 18.53 15.106 18C15.15 17.47 15.183 17.24 15.317 17.24C16.043 17.5122 16.6973 17.9465 17.23 18.51C17.5644 18.8933 17.9979 19.177 18.483 19.33H20.241C21.149 19.33 22 19.33 22 18.63C22 18.37 21.768 18.06 20.431 16.54C20.0063 16.0821 19.5912 15.6153 19.186 15.14Z" fill="black" fill-opacity="0.4"/>
</svg>
