<svg width="44" height="48" viewBox="0 0 44 48" fill="none" xmlns="http://www.w3.org/2000/svg">
<path d="M19.3645 21.8834C19.0451 21.5639 18.5659 21.5639 18.2464 21.8834C17.9268 22.2028 17.9269 22.682 18.2464 23.0015L19.4444 24.1995C19.6041 24.3593 19.7638 24.4391 20.0034 24.4391C20.1632 24.4391 20.4028 24.3593 20.5624 24.1995C20.8819 23.8801 20.8819 23.4009 20.5624 23.0814L19.3645 21.8834Z" fill="#00BF78"/>
<path d="M42.7655 45.6039C40.5292 45.6039 38.7721 43.8469 38.7721 41.6105C38.7721 38.0964 35.8969 35.2212 32.3827 35.2212C31.8396 35.2212 31.3118 35.2902 30.8075 35.4193L23.278 26.356C23.2403 26.2931 23.2071 26.2281 23.1779 26.1619C23.9394 25.1564 26.64 21.6958 36.2164 9.42425C38.0534 6.94841 39.3312 4.23288 40.1299 1.27784L40.2896 0.718801L39.4111 0.0798356L33.3412 3.59401L20.4326 19.025L7.38454 3.43424L1.7938 0.2396L1.3146 0L0.436035 0.718801L0.5958 1.27784C1.39444 4.23288 2.7522 6.94841 4.50924 9.42425L17.6269 26.2006C17.5983 26.268 17.5632 26.3204 17.5275 26.356L9.99787 35.4194C9.49349 35.2903 8.96581 35.2213 8.42268 35.2213C4.90851 35.2213 2.03331 38.0965 2.03331 41.6106C2.03331 45.1248 4.90851 48 8.42268 48C11.9369 48 14.8121 45.1248 14.8121 41.6106C14.8121 40.3499 14.4405 39.1726 13.8037 38.1796L20.3708 29.7098L26.998 38.1854C26.3635 39.1771 25.9933 40.3523 25.9933 41.6105C25.9933 45.1247 28.8685 47.9999 32.3827 47.9999C34.82 47.9999 36.9489 46.6163 38.0254 44.5963C39.0091 46.1673 40.7534 47.2013 42.7654 47.2013C43.1647 47.2013 43.564 46.8818 43.564 46.4026C43.564 45.9234 43.2447 45.6039 42.7655 45.6039ZM34.3794 4.79201L38.0533 2.71544C37.3345 4.79201 36.2962 6.70881 35.0183 8.46585C34.9385 8.54568 27.1115 18.5291 23.5175 23.2412C23.5174 23.2406 23.5172 23.2399 23.517 23.2393C23.5084 23.1936 23.4993 23.1479 23.4882 23.1026C23.4787 23.0622 23.4676 23.0226 23.4559 22.9834C23.4501 22.9636 23.4446 22.9438 23.4382 22.924C23.429 22.8958 23.4189 22.8682 23.4086 22.8405C23.3075 22.5581 23.1587 22.288 22.9584 22.0432L21.4643 20.2581L34.3794 4.79201ZM2.7522 2.71544L6.34621 4.79201L21.6806 23.0016C21.9202 23.401 22.0001 23.8802 21.7605 24.2795C21.2014 25.2379 21.2813 26.4359 22.0001 27.3144L29.2679 36.0199C29.1388 36.0974 29.0095 36.1839 28.8803 36.2754C28.6335 36.4383 28.3988 36.618 28.1773 36.8126C28.1415 36.8412 28.1057 36.8698 28.0699 36.8985L5.78717 8.46585C4.50933 6.70881 3.471 4.79201 2.7522 2.71544ZM8.42278 46.4026C5.78717 46.4026 3.63077 44.2462 3.63077 41.6106C3.63077 38.975 5.78717 36.8186 8.42278 36.8186C8.76655 36.8186 9.10189 36.8562 9.42563 36.9258L10.02 37.1381C10.2796 37.2088 10.5248 37.3081 10.7564 37.4305C11.1174 37.6334 11.4495 37.8817 11.7455 38.1675C11.8983 38.3196 12.0421 38.4828 12.1765 38.6555L12.3323 38.8503C12.8869 39.632 13.2148 40.5847 13.2148 41.6106C13.2148 44.2462 11.0584 46.4026 8.42278 46.4026ZM19.3646 28.4326L12.7671 36.9378C12.4049 36.6006 12.0038 36.3054 11.5716 36.0586L18.634 27.4885L19.1849 28.1931L19.3646 28.4326ZM32.3828 46.4026C29.7472 46.4026 27.5908 44.2462 27.5908 41.6106C27.5908 40.5847 27.9187 39.632 28.4733 38.8503L28.629 38.6556C29.1881 37.9368 29.9069 37.4576 30.7854 37.1381L31.3799 36.9259C31.7036 36.8562 32.0389 36.8187 32.3827 36.8187C35.0183 36.8187 37.1747 38.9751 37.1747 41.6107C37.1748 44.2462 35.0184 46.4026 32.3828 46.4026Z" fill="#00BF78"/>
</svg>
