<svg width="28" height="28" viewBox="0 0 28 28" fill="none" xmlns="http://www.w3.org/2000/svg">
<path fill-rule="evenodd" clip-rule="evenodd" d="M14 0C16.7689 0 19.4757 0.821086 21.778 2.35943C24.0803 3.89777 25.8747 6.08427 26.9343 8.64243C27.9939 11.2006 28.2712 14.0155 27.731 16.7313C27.1908 19.447 25.8574 21.9416 23.8995 23.8995C21.9416 25.8574 19.447 27.1908 16.7313 27.731C14.0155 28.2712 11.2006 27.9939 8.64243 26.9343C6.08427 25.8747 3.89777 24.0803 2.35943 21.778C0.821086 19.4757 0 16.7689 0 14C0 10.287 1.475 6.72601 4.1005 4.1005C6.72601 1.475 10.287 0 14 0V0ZM20.855 11.16C20.7892 10.6512 20.5981 10.1668 20.299 9.75C19.9297 9.37317 19.4265 9.15751 18.899 9.15C16.941 9.01 13.999 9.01 13.999 9.01H13.993C13.993 9.01 11.055 9.01 9.093 9.15C8.56532 9.15686 8.06188 9.37262 7.693 9.75C7.39348 10.1666 7.2024 10.6511 7.137 11.16C7.04984 11.9237 7.00311 12.6914 6.997 13.46V14.54C7.00311 15.3086 7.04984 16.0763 7.137 16.84C7.2024 17.3489 7.39348 17.8334 7.693 18.25C8.11546 18.6351 8.66439 18.8521 9.236 18.86C10.356 18.97 13.994 19 13.994 19C13.994 19 16.935 18.99 18.894 18.85C19.1557 18.8489 19.4144 18.7953 19.6549 18.6922C19.8954 18.5891 20.1128 18.4387 20.294 18.25C20.5931 17.8332 20.7842 17.3488 20.85 16.84C20.9372 16.0763 20.9839 15.3086 20.99 14.54V13.46C20.9855 12.6915 20.9405 11.9238 20.855 11.16ZM12.555 15.85V11.85L16.336 13.86L12.555 15.85Z" fill="black" fill-opacity="0.4"/>
</svg>
